<mxfile host="Electron" agent="Mozilla/5.0 (Windows NT 10.0; Win64; x64) AppleWebKit/537.36 (KHTML, like Gecko) draw.io/24.7.17 Chrome/128.0.6613.36 Electron/32.0.1 Safari/537.36" version="24.7.17">
  <diagram name="Page-1" id="AYU10W_wuZIJJQxBKckb">
    <mxGraphModel dx="1847" dy="1375" grid="1" gridSize="10" guides="1" tooltips="1" connect="1" arrows="1" fold="1" page="1" pageScale="1" pageWidth="1000" pageHeight="1000" math="0" shadow="0">
      <root>
        <mxCell id="0" />
        <mxCell id="1" parent="0" />
        <mxCell id="X9ErEhTLX7Dl1D5zabpE-2" value="&lt;b&gt;VPC A&lt;/b&gt;&lt;div style=&quot;font-size: 14px;&quot;&gt;&lt;span style=&quot;background-color: initial;&quot;&gt;10.1.0.0/16&lt;/span&gt;&lt;br&gt;&lt;/div&gt;" style="rounded=0;whiteSpace=wrap;html=1;fontSize=14;verticalAlign=top;align=left;spacing=7.874;" vertex="1" parent="1">
          <mxGeometry x="80" y="120" width="160" height="120" as="geometry" />
        </mxCell>
        <mxCell id="X9ErEhTLX7Dl1D5zabpE-3" value="&lt;b&gt;VPC B&lt;/b&gt;&lt;div style=&quot;font-size: 14px;&quot;&gt;&lt;span style=&quot;background-color: initial;&quot;&gt;10.2.0.0/16&lt;/span&gt;&lt;br&gt;&lt;/div&gt;" style="rounded=0;whiteSpace=wrap;html=1;fontSize=14;verticalAlign=top;align=left;spacing=7.874;" vertex="1" parent="1">
          <mxGeometry x="480" y="120" width="160" height="120" as="geometry" />
        </mxCell>
        <mxCell id="X9ErEhTLX7Dl1D5zabpE-5" value="" style="edgeStyle=orthogonalEdgeStyle;rounded=0;orthogonalLoop=1;jettySize=auto;html=1;startArrow=classic;startFill=1;" edge="1" parent="1" source="X9ErEhTLX7Dl1D5zabpE-4" target="X9ErEhTLX7Dl1D5zabpE-3">
          <mxGeometry relative="1" as="geometry" />
        </mxCell>
        <mxCell id="X9ErEhTLX7Dl1D5zabpE-6" value="" style="edgeStyle=orthogonalEdgeStyle;rounded=0;orthogonalLoop=1;jettySize=auto;html=1;startArrow=classic;startFill=1;" edge="1" parent="1" source="X9ErEhTLX7Dl1D5zabpE-4" target="X9ErEhTLX7Dl1D5zabpE-2">
          <mxGeometry relative="1" as="geometry" />
        </mxCell>
        <mxCell id="X9ErEhTLX7Dl1D5zabpE-4" value="" style="ellipse;whiteSpace=wrap;html=1;" vertex="1" parent="1">
          <mxGeometry x="340" y="160" width="40" height="40" as="geometry" />
        </mxCell>
        <mxCell id="X9ErEhTLX7Dl1D5zabpE-7" value="VPC&lt;br style=&quot;font-size: 14px;&quot;&gt;Peering" style="text;html=1;align=center;verticalAlign=middle;whiteSpace=wrap;rounded=0;fontSize=14;fontStyle=1" vertex="1" parent="1">
          <mxGeometry x="330" y="120" width="60" height="30" as="geometry" />
        </mxCell>
      </root>
    </mxGraphModel>
  </diagram>
</mxfile>
